<svg width="56" height="56" viewBox="0 0 56 56" fill="none" xmlns="http://www.w3.org/2000/svg">
<rect width="56" height="56" rx="16" fill="#333333"/>
<path d="M33.9766 33.1523V36H22.1875V33.5859L27.6953 27.75C28.2109 27.1562 28.6211 26.6328 28.9258 26.1797C29.2383 25.7266 29.4648 25.3164 29.6055 24.9492C29.7461 24.5742 29.8164 24.2305 29.8164 23.918C29.8164 23.4102 29.7344 22.9805 29.5703 22.6289C29.4141 22.2773 29.1836 22.0078 28.8789 21.8203C28.5742 21.6328 28.2031 21.5391 27.7656 21.5391C27.2969 21.5391 26.8945 21.6602 26.5586 21.9023C26.2227 22.1445 25.9648 22.4805 25.7852 22.9102C25.6055 23.332 25.5156 23.8125 25.5156 24.3516H21.8359C21.8359 23.3125 22.0859 22.3672 22.5859 21.5156C23.0859 20.6562 23.7852 19.9727 24.6836 19.4648C25.582 18.9492 26.6328 18.6914 27.8359 18.6914C29.0703 18.6914 30.1055 18.8867 30.9414 19.2773C31.7773 19.668 32.4102 20.2266 32.8398 20.9531C33.2695 21.6797 33.4844 22.5547 33.4844 23.5781C33.4844 24.1562 33.3906 24.7148 33.2031 25.2539C33.0234 25.793 32.7617 26.3281 32.418 26.8594C32.0742 27.3906 31.6602 27.9336 31.1758 28.4883C30.6914 29.0352 30.1445 29.6133 29.5352 30.2227L26.957 33.1523H33.9766Z" fill="white"/>
</svg>
