<svg width="56" height="56" viewBox="0 0 56 56" fill="none" xmlns="http://www.w3.org/2000/svg">
<rect width="56" height="56" rx="16" fill="#333333"/>
<path d="M25.7148 25.9102H27.5781C28.1094 25.9102 28.5469 25.8164 28.8906 25.6289C29.2422 25.4414 29.5 25.1758 29.6641 24.832C29.8359 24.4883 29.9219 24.0859 29.9219 23.625C29.9219 23.2266 29.8438 22.8711 29.6875 22.5586C29.5312 22.2461 29.293 22 28.9727 21.8203C28.6602 21.6328 28.2539 21.5391 27.7539 21.5391C27.3945 21.5391 27.0508 21.6133 26.7227 21.7617C26.4023 21.9023 26.1406 22.1094 25.9375 22.3828C25.7344 22.6484 25.6328 22.9688 25.6328 23.3438H21.9648C21.9648 22.3906 22.2227 21.5664 22.7383 20.8711C23.2617 20.1758 23.9531 19.6406 24.8125 19.2656C25.6797 18.8828 26.625 18.6914 27.6484 18.6914C28.8281 18.6914 29.8633 18.8789 30.7539 19.2539C31.6523 19.6211 32.3477 20.168 32.8398 20.8945C33.3398 21.6133 33.5898 22.5039 33.5898 23.5664C33.5898 24.1211 33.457 24.6562 33.1914 25.1719C32.9336 25.6797 32.5625 26.1328 32.0781 26.5312C31.6016 26.9219 31.0312 27.2344 30.3672 27.4688C29.7109 27.6953 28.9805 27.8086 28.1758 27.8086H25.7148V25.9102ZM25.7148 28.6641V26.8008H28.1758C29.0664 26.8008 29.8633 26.9023 30.5664 27.1055C31.2695 27.3086 31.8672 27.6016 32.3594 27.9844C32.8516 28.3672 33.2266 28.832 33.4844 29.3789C33.7422 29.9258 33.8711 30.5352 33.8711 31.207C33.8711 32.0039 33.7148 32.7148 33.4023 33.3398C33.0898 33.9648 32.6523 34.4922 32.0898 34.9219C31.5273 35.3516 30.8672 35.6797 30.1094 35.9062C29.3516 36.125 28.5312 36.2344 27.6484 36.2344C26.9375 36.2344 26.2305 36.1367 25.5273 35.9414C24.8242 35.7461 24.1875 35.4492 23.6172 35.0508C23.0469 34.6445 22.5898 34.1328 22.2461 33.5156C21.9023 32.8906 21.7305 32.1484 21.7305 31.2891H25.3984C25.3984 31.6875 25.5 32.0469 25.7031 32.3672C25.9141 32.6797 26.1992 32.9297 26.5586 33.1172C26.9258 33.2969 27.3242 33.3867 27.7539 33.3867C28.2695 33.3867 28.707 33.293 29.0664 33.1055C29.4336 32.9102 29.7109 32.6445 29.8984 32.3086C30.0938 31.9727 30.1914 31.5859 30.1914 31.1484C30.1914 30.5547 30.0859 30.0781 29.875 29.7188C29.6719 29.3516 29.375 29.0859 28.9844 28.9219C28.5938 28.75 28.125 28.6641 27.5781 28.6641H25.7148Z" fill="white"/>
</svg>
