<svg width="36" height="36" viewBox="0 0 36 36" fill="none" xmlns="http://www.w3.org/2000/svg">
<mask id="mask0_1_24398" style="mask-type:alpha" maskUnits="userSpaceOnUse" x="0" y="4" width="36" height="27">
<path opacity="0.8" d="M28.5 17.6484L28.5 27.0001C28.5 27.0001 25 30.8572 18 30.8572C11 30.8572 7.5 27.0001 7.5 27.0001L7.5 17.5488L18 22.5001L28.5 17.6484Z" fill="url(#paint0_linear_1_24398)"/>
<path fill-rule="evenodd" clip-rule="evenodd" d="M34.549 14.8619C35.7109 14.3257 35.7109 12.6743 34.549 12.1381L17.9998 4.5L1.49982 12C0.668931 12.3808 0.13622 13.211 0.13622 14.125V23.875C1.79307 23.875 3.13622 22.5318 3.13622 20.875V15.5L17.9998 22.5L34.549 14.8619Z" fill="black"/>
</mask>
<g mask="url(#mask0_1_24398)">
<path d="M0 0H36V36H0V0Z" fill="black" fill-opacity="0.54"/>
</g>
<defs>
<linearGradient id="paint0_linear_1_24398" x1="27.1875" y1="26.4644" x2="9.95765" y2="17.6393" gradientUnits="userSpaceOnUse">
<stop stop-opacity="0.7"/>
<stop offset="1" stop-opacity="0.4"/>
</linearGradient>
</defs>
</svg>
