<svg width="32" height="32" viewBox="0 0 32 32" fill="none" xmlns="http://www.w3.org/2000/svg">
<rect width="32" height="32" rx="8" fill="#7ABE87"/>
<g clip-path="url(#clip0_60_519)">
<path d="M19.6568 11.6207C19.8394 11.4364 20.0877 11.3318 20.3472 11.3299C20.6067 11.328 20.8564 11.4289 21.0417 11.6105C21.2271 11.7922 21.333 12.0398 21.3363 12.2993C21.3396 12.5588 21.2401 12.8091 21.0595 12.9954L15.8328 19.5294C15.743 19.6261 15.6347 19.7037 15.5142 19.7575C15.3938 19.8114 15.2637 19.8404 15.1318 19.8429C14.9999 19.8454 14.8688 19.8213 14.7464 19.772C14.624 19.7227 14.5128 19.6493 14.4195 19.5561L10.9541 16.0921C10.77 15.9078 10.6666 15.658 10.6666 15.3975C10.6667 15.137 10.7702 14.8872 10.9545 14.7031C11.1387 14.5189 11.3885 14.4155 11.649 14.4156C11.9095 14.4156 12.1593 14.5192 12.3435 14.7034L15.0841 17.4447L19.6308 11.6514C19.6391 11.6408 19.648 11.6308 19.6575 11.6214L19.6568 11.6207Z" fill="white"/>
</g>
<defs>
<clipPath id="clip0_60_519">
<rect width="10.6667" height="10.6667" fill="white" transform="translate(10.6667 10.6667)"/>
</clipPath>
</defs>
</svg>
